<svg width="27" height="27" viewBox="0 0 27 27" fill="none" xmlns="http://www.w3.org/2000/svg">
<path fill-rule="evenodd" clip-rule="evenodd" d="M22.2188 13.5C22.2188 13.2762 22.1299 13.0616 21.9716 12.9034C21.8134 12.7451 21.5988 12.6562 21.375 12.6562H5.625C5.40122 12.6562 5.18661 12.7451 5.02838 12.9034C4.87014 13.0616 4.78125 13.2762 4.78125 13.5C4.78125 13.7238 4.87014 13.9384 5.02838 14.0966C5.18661 14.2549 5.40122 14.3438 5.625 14.3438H21.375C21.5988 14.3438 21.8134 14.2549 21.9716 14.0966C22.1299 13.9384 22.2188 13.7238 22.2188 13.5ZM22.2188 7.875C22.2188 7.65122 22.1299 7.43661 21.9716 7.27838C21.8134 7.12014 21.5988 7.03125 21.375 7.03125H5.625C5.40122 7.03125 5.18661 7.12014 5.02838 7.27838C4.87014 7.43661 4.78125 7.65122 4.78125 7.875C4.78125 8.09878 4.87014 8.31339 5.02838 8.47162C5.18661 8.62986 5.40122 8.71875 5.625 8.71875H21.375C21.5988 8.71875 21.8134 8.62986 21.9716 8.47162C22.1299 8.31339 22.2188 8.09878 22.2188 7.875ZM22.2188 19.125C22.2188 18.9012 22.1299 18.6866 21.9716 18.5284C21.8134 18.3701 21.5988 18.2812 21.375 18.2812H5.625C5.40122 18.2812 5.18661 18.3701 5.02838 18.5284C4.87014 18.6866 4.78125 18.9012 4.78125 19.125C4.78125 19.3488 4.87014 19.5634 5.02838 19.7216C5.18661 19.8799 5.40122 19.9688 5.625 19.9688H21.375C21.5988 19.9688 21.8134 19.8799 21.9716 19.7216C22.1299 19.5634 22.2188 19.3488 22.2188 19.125Z" fill="black"/>
</svg>
