<svg width="26" height="26" viewBox="0 0 26 26" fill="none" xmlns="http://www.w3.org/2000/svg">
<path d="M21.1324 15.6975C21.8409 14.367 22.2104 12.8823 22.2082 11.375C22.2082 6.28925 18.0856 2.16663 12.9998 2.16663C7.91414 2.16663 3.79152 6.28925 3.79152 11.375C3.78779 13.5472 4.55564 15.6502 5.95818 17.3089L5.96902 17.3225C5.97281 17.3257 5.97606 17.33 5.97877 17.3333H5.95818L11.4225 23.1345C11.6251 23.3496 11.8695 23.5209 12.1407 23.638C12.4119 23.7551 12.7042 23.8155 12.9996 23.8155C13.295 23.8155 13.5873 23.7551 13.8585 23.638C14.1297 23.5209 14.3741 23.3496 14.5766 23.1345L20.0415 17.3333H20.0209L20.0296 17.323L20.0307 17.3219C20.0697 17.2753 20.1087 17.2287 20.1471 17.1811C20.5229 16.7193 20.853 16.2223 21.133 15.6969L21.1324 15.6975ZM13.002 14.8958C12.1401 14.8958 11.3134 14.5534 10.7039 13.9439C10.0944 13.3344 9.75202 12.5077 9.75202 11.6458C9.75202 10.7838 10.0944 9.95719 10.7039 9.34769C11.3134 8.7382 12.1401 8.39579 13.002 8.39579C13.864 8.39579 14.6906 8.7382 15.3001 9.34769C15.9096 9.95719 16.252 10.7838 16.252 11.6458C16.252 12.5077 15.9096 13.3344 15.3001 13.9439C14.6906 14.5534 13.864 14.8958 13.002 14.8958Z" fill="black" fill-opacity="0.6"/>
</svg>
